<svg xmlns="http://www.w3.org/2000/svg" viewBox="0 0 200 85" role="img" aria-label="Miltinson. — Builder. Consultant. Founder.">
  <title>Miltinson. — Builder. Consultant. Founder.</title>
  <path fill="#000000" d="M14.12 42.69L14.12 14.29L21.12 14.29L28.96 36.29L36.8 14.29L43.8 14.29L43.8 42.69L38.6 42.69L38.6 23.09L31.44 42.65L26.48 42.65L19.32 23.09L19.32 42.69ZM48.16 42.69L48.16 21.33L53.28 21.33L53.28 42.69ZM48.08 18.49L48.08 13.93L53.4 13.93L53.4 18.49ZM62.76 42.69Q60.44 42.69 59.04 41.49Q57.64 40.29 57.64 37.65L57.64 14.29L62.76 14.29L62.76 37.13Q62.76 37.93 63.18 38.33Q63.6 38.73 64.36 38.73L65.92 38.73L65.92 42.69ZM75.26 42.69Q72.06 42.69 70.56 41.21Q69.06 39.73 69.06 36.57L69.06 16.33L74.18 16.33L74.18 36.09Q74.18 37.57 74.82 38.15Q75.46 38.73 76.82 38.73L79.82 38.73L79.82 42.69ZM65.7 25.29L65.7 21.33L79.82 21.33L79.82 25.29ZM82.28 42.69L82.28 21.33L87.4 21.33L87.4 42.69ZM82.2 18.49L82.2 13.93L87.52 13.93L87.52 18.49ZM92.27 42.69L92.27 21.33L96.91 21.33L97.11 27.33L96.51 27.09Q96.83 24.85 97.83 23.49Q98.83 22.13 100.27 21.49Q101.71 20.85 103.43 20.85Q105.79 20.85 107.41 21.89Q109.03 22.93 109.87 24.75Q110.71 26.57 110.71 28.97L110.71 42.69L105.59 42.69L105.59 30.61Q105.59 28.81 105.23 27.57Q104.87 26.33 104.05 25.67Q103.23 25.01 101.87 25.01Q99.83 25.01 98.61 26.45Q97.39 27.89 97.39 30.61L97.39 42.69ZM123.48 43.17Q120.24 43.17 118.1 42.25Q115.96 41.33 114.84 39.69Q113.72 38.05 113.56 35.97L118.8 35.73Q119.08 37.41 120.16 38.33Q121.24 39.25 123.52 39.25Q125.32 39.25 126.26 38.67Q127.2 38.09 127.2 36.85Q127.2 36.13 126.86 35.65Q126.52 35.17 125.54 34.81Q124.56 34.45 122.68 34.09Q119.44 33.53 117.6 32.71Q115.76 31.89 115.02 30.65Q114.28 29.41 114.28 27.57Q114.28 24.57 116.58 22.71Q118.88 20.85 123.32 20.85Q126.4 20.85 128.38 21.83Q130.36 22.81 131.38 24.43Q132.4 26.05 132.56 28.05L127.36 28.29Q127.32 27.29 126.88 26.49Q126.44 25.69 125.56 25.23Q124.68 24.77 123.24 24.77Q121.44 24.77 120.5 25.49Q119.56 26.21 119.56 27.41Q119.56 28.25 119.94 28.81Q120.32 29.37 121.24 29.71Q122.16 30.05 123.76 30.33Q127.04 30.81 128.96 31.65Q130.88 32.49 131.7 33.75Q132.52 35.01 132.52 36.77Q132.52 39.85 130.06 41.51Q127.6 43.17 123.48 43.17ZM144.8 43.17Q141.64 43.17 139.26 41.79Q136.88 40.41 135.58 37.89Q134.28 35.37 134.28 32.01Q134.28 28.61 135.58 26.11Q136.88 23.61 139.26 22.23Q141.64 20.85 144.8 20.85Q147.96 20.85 150.32 22.23Q152.68 23.61 153.98 26.11Q155.28 28.61 155.28 32.01Q155.28 35.37 153.98 37.89Q152.68 40.41 150.32 41.79Q147.96 43.17 144.8 43.17ZM144.8 39.01Q147.28 39.01 148.62 37.17Q149.96 35.33 149.96 32.01Q149.96 28.73 148.62 26.87Q147.28 25.01 144.8 25.01Q142.32 25.01 140.96 26.87Q139.6 28.73 139.6 32.01Q139.6 35.33 140.96 37.17Q142.32 39.01 144.8 39.01ZM158.24 42.69L158.24 21.33L162.88 21.33L163.08 27.33L162.48 27.09Q162.8 24.85 163.8 23.49Q164.8 22.13 166.24 21.49Q167.68 20.85 169.4 20.85Q171.76 20.85 173.38 21.89Q175 22.93 175.84 24.75Q176.68 26.57 176.68 28.97L176.68 42.69L171.56 42.69L171.56 30.61Q171.56 28.81 171.2 27.57Q170.84 26.33 170.02 25.67Q169.2 25.01 167.84 25.01Q165.8 25.01 164.58 26.45Q163.36 27.89 163.36 30.61L163.36 42.69Z"/>
  <path fill="oklch(72.5% 0.175 65)" d="M180.04 42.69L180.04 37.09L185.88 37.09L185.88 42.69Z"/>
  <rect fill="oklch(86% 0.005 247)" x="14.12" y="53.17" width="171.77" height="1.5"/>
  <path fill="oklch(42% 0.01 247)" d="M14.12 70.98L14.12 64.77L15.95 64.77Q16.83 64.77 17.33 65.19Q17.83 65.62 17.83 66.37Q17.83 66.79 17.65 67.1Q17.47 67.41 17.15 67.58Q16.82 67.76 16.39 67.76L16.39 67.67Q16.86 67.66 17.21 67.84Q17.57 68.03 17.77 68.38Q17.98 68.74 17.98 69.24Q17.98 69.76 17.75 70.16Q17.51 70.55 17.08 70.77Q16.65 70.98 16.06 70.98ZM15.01 70.19L15.99 70.19Q16.48 70.19 16.77 69.92Q17.06 69.66 17.06 69.19Q17.06 68.72 16.77 68.43Q16.48 68.14 15.99 68.14L15.01 68.14ZM15.01 67.37L15.94 67.37Q16.4 67.37 16.66 67.13Q16.92 66.88 16.92 66.46Q16.92 66.04 16.66 65.8Q16.4 65.56 15.95 65.56L15.01 65.56ZM21.73 71.07Q20.84 71.07 20.35 70.58Q19.87 70.09 19.87 69.24L19.87 64.77L20.79 64.77L20.79 69.24Q20.79 69.71 21.02 69.98Q21.26 70.26 21.73 70.26Q22.2 70.26 22.44 69.98Q22.68 69.71 22.68 69.24L22.68 64.77L23.6 64.77L23.6 69.24Q23.6 70.09 23.11 70.58Q22.63 71.07 21.73 71.07ZM25.8 70.98L25.8 70.16L27.05 70.16L27.05 65.59L25.8 65.59L25.8 64.77L29.24 64.77L29.24 65.59L27.99 65.59L27.99 70.16L29.24 70.16L29.24 70.98ZM31.68 70.98L31.68 64.77L32.6 64.77L32.6 70.14L35.31 70.14L35.31 70.98ZM37.24 70.98L37.24 64.77L38.98 64.77Q39.59 64.77 40.04 65Q40.49 65.24 40.75 65.66Q41 66.09 41 66.67L41 69.07Q41 69.64 40.75 70.08Q40.49 70.51 40.04 70.75Q39.59 70.98 38.98 70.98ZM38.16 70.15L38.98 70.15Q39.49 70.15 39.78 69.86Q40.08 69.58 40.08 69.07L40.08 66.67Q40.08 66.17 39.78 65.89Q39.49 65.6 38.98 65.6L38.16 65.6ZM43.12 70.98L43.12 64.77L46.77 64.77L46.77 65.59L44.03 65.59L44.03 67.35L46.48 67.35L46.48 68.16L44.03 68.16L44.03 70.16L46.77 70.16L46.77 70.98ZM48.83 70.98L48.83 64.77L50.77 64.77Q51.36 64.77 51.8 64.99Q52.23 65.22 52.47 65.63Q52.71 66.04 52.71 66.59Q52.71 67.21 52.39 67.67Q52.08 68.12 51.53 68.31L52.8 70.98L51.75 70.98L50.62 68.43L49.74 68.43L49.74 70.98ZM49.74 67.62L50.77 67.62Q51.23 67.62 51.51 67.34Q51.78 67.07 51.78 66.61Q51.78 66.13 51.51 65.86Q51.23 65.59 50.77 65.59L49.74 65.59ZM62.24 68.78Q61.9 68.78 61.69 68.58Q61.49 68.38 61.49 68.04Q61.49 67.7 61.69 67.49Q61.9 67.28 62.24 67.28Q62.58 67.28 62.78 67.49Q62.98 67.7 62.98 68.04Q62.98 68.38 62.78 68.58Q62.58 68.78 62.24 68.78ZM73.84 71.07Q73.26 71.07 72.83 70.85Q72.4 70.63 72.17 70.22Q71.94 69.81 71.94 69.25L71.94 66.5Q71.94 65.93 72.17 65.53Q72.4 65.12 72.83 64.9Q73.26 64.68 73.84 64.68Q74.42 64.68 74.85 64.9Q75.27 65.13 75.51 65.53Q75.74 65.93 75.74 66.5L74.82 66.5Q74.82 66.01 74.57 65.76Q74.31 65.5 73.84 65.5Q73.37 65.5 73.11 65.76Q72.86 66.01 72.86 66.49L72.86 69.25Q72.86 69.73 73.11 69.99Q73.37 70.25 73.84 70.25Q74.31 70.25 74.57 69.99Q74.82 69.73 74.82 69.25L75.74 69.25Q75.74 69.81 75.51 70.21Q75.27 70.62 74.85 70.84Q74.42 71.07 73.84 71.07ZM79.59 71.07Q79.02 71.07 78.59 70.85Q78.17 70.63 77.95 70.22Q77.72 69.81 77.72 69.25L77.72 66.5Q77.72 65.93 77.95 65.53Q78.17 65.12 78.59 64.9Q79.02 64.68 79.59 64.68Q80.17 64.68 80.59 64.9Q81.02 65.12 81.24 65.53Q81.47 65.93 81.47 66.49L81.47 69.25Q81.47 69.81 81.24 70.22Q81.02 70.63 80.59 70.85Q80.17 71.07 79.59 71.07ZM79.59 70.25Q80.06 70.25 80.31 69.99Q80.55 69.73 80.55 69.25L80.55 66.5Q80.55 66.01 80.31 65.76Q80.06 65.5 79.59 65.5Q79.14 65.5 78.89 65.76Q78.64 66.01 78.64 66.5L78.64 69.25Q78.64 69.73 78.89 69.99Q79.14 70.25 79.59 70.25ZM83.52 70.98L83.52 64.77L84.67 64.77L86.49 69.93Q86.47 69.69 86.44 69.35Q86.42 69.01 86.41 68.64Q86.39 68.27 86.39 67.98L86.39 64.77L87.24 64.77L87.24 70.98L86.09 70.98L84.28 65.82Q84.3 66.04 84.32 66.37Q84.34 66.7 84.36 67.06Q84.37 67.41 84.37 67.72L84.37 70.98ZM91.19 71.07Q90.56 71.07 90.11 70.86Q89.66 70.65 89.41 70.26Q89.17 69.87 89.17 69.34L90.08 69.34Q90.08 69.76 90.38 70.01Q90.67 70.25 91.2 70.25Q91.69 70.25 91.98 70.01Q92.26 69.77 92.26 69.35Q92.26 69.01 92.07 68.75Q91.87 68.5 91.52 68.4L90.73 68.17Q90.05 67.98 89.68 67.5Q89.31 67.03 89.31 66.38Q89.31 65.87 89.54 65.48Q89.77 65.1 90.2 64.89Q90.62 64.67 91.2 64.67Q92.05 64.67 92.57 65.13Q93.08 65.59 93.09 66.37L92.17 66.37Q92.17 65.96 91.91 65.73Q91.65 65.49 91.18 65.49Q90.73 65.49 90.48 65.71Q90.22 65.93 90.22 66.32Q90.22 66.67 90.41 66.92Q90.61 67.18 90.96 67.28L91.75 67.52Q92.44 67.7 92.8 68.18Q93.17 68.66 93.17 69.32Q93.17 69.84 92.92 70.24Q92.67 70.63 92.23 70.85Q91.79 71.07 91.19 71.07ZM96.95 71.07Q96.06 71.07 95.58 70.58Q95.09 70.09 95.09 69.24L95.09 64.77L96.01 64.77L96.01 69.24Q96.01 69.71 96.24 69.98Q96.48 70.26 96.95 70.26Q97.42 70.26 97.66 69.98Q97.9 69.71 97.9 69.24L97.9 64.77L98.82 64.77L98.82 69.24Q98.82 70.09 98.33 70.58Q97.85 71.07 96.95 71.07ZM101.11 70.98L101.11 64.77L102.03 64.77L102.03 70.14L104.75 70.14L104.75 70.98ZM108.07 70.98L108.07 65.61L106.41 65.61L106.41 64.76L110.65 64.76L110.65 65.61L108.99 65.61L108.99 70.98ZM112.13 70.98L113.71 64.77L114.92 64.77L116.5 70.98L115.57 70.98L115.2 69.41L113.44 69.41L113.06 70.98ZM113.61 68.65L115.02 68.65L114.59 66.85Q114.48 66.38 114.41 66.02Q114.34 65.67 114.31 65.54Q114.29 65.67 114.22 66.02Q114.15 66.38 114.03 66.84ZM118.24 70.98L118.24 64.77L119.39 64.77L121.21 69.93Q121.19 69.69 121.16 69.35Q121.14 69.01 121.12 68.64Q121.11 68.27 121.11 67.98L121.11 64.77L121.96 64.77L121.96 70.98L120.81 70.98L119 65.82Q119.02 66.04 119.04 66.37Q119.06 66.7 119.07 67.06Q119.09 67.41 119.09 67.72L119.09 70.98ZM125.43 70.98L125.43 65.61L123.77 65.61L123.77 64.76L128 64.76L128 65.61L126.34 65.61L126.34 70.98ZM137.46 68.78Q137.12 68.78 136.91 68.58Q136.71 68.38 136.71 68.04Q136.71 67.7 136.91 67.49Q137.12 67.28 137.46 67.28Q137.81 67.28 138.01 67.49Q138.21 67.7 138.21 68.04Q138.21 68.38 138.01 68.58Q137.81 68.78 137.46 68.78ZM147.23 70.98L147.23 64.76L150.98 64.76L150.98 65.61L148.12 65.61L148.12 67.47L150.76 67.47L150.76 68.32L148.14 68.32L148.14 70.98ZM154.82 71.07Q154.24 71.07 153.82 70.85Q153.4 70.63 153.17 70.22Q152.94 69.81 152.94 69.25L152.94 66.5Q152.94 65.93 153.17 65.53Q153.4 65.12 153.82 64.9Q154.24 64.68 154.82 64.68Q155.4 64.68 155.82 64.9Q156.24 65.12 156.46 65.53Q156.69 65.93 156.69 66.49L156.69 69.25Q156.69 69.81 156.46 70.22Q156.24 70.63 155.82 70.85Q155.4 71.07 154.82 71.07ZM154.82 70.25Q155.28 70.25 155.53 69.99Q155.77 69.73 155.77 69.25L155.77 66.5Q155.77 66.01 155.53 65.76Q155.28 65.5 154.82 65.5Q154.36 65.5 154.11 65.76Q153.86 66.01 153.86 66.5L153.86 69.25Q153.86 69.73 154.11 69.99Q154.36 70.25 154.82 70.25ZM160.6 71.07Q159.71 71.07 159.22 70.58Q158.74 70.09 158.74 69.24L158.74 64.77L159.66 64.77L159.66 69.24Q159.66 69.71 159.89 69.98Q160.13 70.26 160.6 70.26Q161.07 70.26 161.31 69.98Q161.55 69.71 161.55 69.24L161.55 64.77L162.47 64.77L162.47 69.24Q162.47 70.09 161.98 70.58Q161.5 71.07 160.6 71.07ZM164.53 70.98L164.53 64.77L165.68 64.77L167.5 69.93Q167.48 69.69 167.45 69.35Q167.43 69.01 167.41 68.64Q167.4 68.27 167.4 67.98L167.4 64.77L168.25 64.77L168.25 70.98L167.1 70.98L165.29 65.82Q165.31 66.04 165.33 66.37Q165.35 66.7 165.36 67.06Q165.38 67.41 165.38 67.72L165.38 70.98ZM170.33 70.98L170.33 64.77L172.06 64.77Q172.68 64.77 173.13 65Q173.58 65.24 173.83 65.66Q174.08 66.09 174.08 66.67L174.08 69.07Q174.08 69.64 173.83 70.08Q173.58 70.51 173.13 70.75Q172.68 70.98 172.06 70.98ZM171.25 70.15L172.06 70.15Q172.58 70.15 172.87 69.86Q173.16 69.58 173.16 69.07L173.16 66.67Q173.16 66.17 172.87 65.89Q172.58 65.6 172.06 65.6L171.25 65.6ZM176.21 70.98L176.21 64.77L179.86 64.77L179.86 65.59L177.11 65.59L177.11 67.35L179.56 67.35L179.56 68.16L177.11 68.16L177.11 70.16L179.86 70.16L179.86 70.98ZM181.91 70.98L181.91 64.77L183.86 64.77Q184.45 64.77 184.88 64.99Q185.31 65.22 185.56 65.63Q185.8 66.04 185.8 66.59Q185.8 67.21 185.48 67.67Q185.16 68.12 184.62 68.31L185.88 70.98L184.84 70.98L183.71 68.43L182.83 68.43L182.83 70.98ZM182.83 67.62L183.86 67.62Q184.32 67.62 184.59 67.34Q184.86 67.07 184.86 66.61Q184.86 66.13 184.59 65.86Q184.32 65.59 183.86 65.59L182.83 65.59Z"/>
</svg>
